<svg width="85" height="50" viewBox="0 0 85 50" fill="none" xmlns="http://www.w3.org/2000/svg">
<path id="&#226;&#128;&#156;" d="M84.6211 0.226562C83.3841 5.5 82.1146 11.0339 80.8125 16.8281C79.5755 22.6224 78.4362 28.319 77.3945 33.918C76.3529 39.4518 75.474 44.5299 74.7578 49.1523H47.4141L46.0469 47.0039C47.2188 42.2513 48.7161 37.2057 50.5391 31.8672C52.4271 26.4635 54.4453 21.0599 56.5938 15.6562C58.8073 10.1875 61.0208 5.04427 63.2344 0.226562H84.6211ZM39.0156 0.226562C37.7786 5.5 36.5091 11.0339 35.207 16.8281C33.9701 22.6224 32.8307 28.319 31.7891 33.918C30.7474 39.4518 29.8685 44.5299 29.1523 49.1523H1.80859L0.441406 47.0039C1.61328 42.2513 3.11068 37.2057 4.93359 31.8672C6.82161 26.4635 8.83984 21.0599 10.9883 15.6562C13.2018 10.1875 15.4154 5.04427 17.6289 0.226562H39.0156Z" fill="#FFDA14"/>
</svg>
